<svg width="20" height="20" viewBox="0 0 20 20" fill="none" xmlns="http://www.w3.org/2000/svg">
  <path d="M5.06667 14.75C5.06667 1 4.53333 2.25 6.13333 2H14.1333C14.1333 2 14.9333 2 14.9333 2.75V16C15.4667 16 15.7333 16 16 16.5V17.5V18H4V16.75C4 16.5 4 16.25 4.53333 16.25H13.0667M6.66667 10.25V11.25M9.06667 5V4.75C9.17081 4.65237 9.33333 4.5 9.33333 4.5C9.33333 4.5 9.49586 4.34763 9.6 4.25H10.4L10.8842 4.78071L10.6175 5.53071L9.86667 6V6.25L12 7.5L12.2667 8L12 8.5H7.73333L7.46667 8L7.73333 7.5L8.53333 7" stroke="#DAF1A2" stroke-linecap="round" stroke-linejoin="round"/>
</svg>
