<svg width="15" height="17" viewBox="0 0 15 17" fill="none" xmlns="http://www.w3.org/2000/svg">
<path fill-rule="evenodd" clip-rule="evenodd" d="M8.9716 0.646298C9.24883 0.719919 9.48109 0.909035 9.60936 1.16558C10.0929 2.13271 10.4538 2.71968 10.8169 3.19559C11.1844 3.67732 11.5732 4.07168 12.1646 4.66307C13.5312 6.02971 14.2148 7.82292 14.2148 9.61283C14.2148 11.4027 13.5312 13.1959 12.1646 14.5626C9.43092 17.2962 4.99877 17.2962 2.2651 14.5626C0.898459 13.1959 0.214846 11.4027 0.214844 9.61283C0.214841 7.82292 0.898455 6.02971 2.2651 4.66307C2.55109 4.37707 2.98121 4.29152 3.35489 4.4463C3.72856 4.60108 3.9722 4.96572 3.9722 5.37018C3.9722 6.48999 4.04213 7.34325 4.36965 8.02383C4.54975 8.39806 4.83069 8.76394 5.31489 9.09044C5.43053 8.02967 5.64236 6.73728 5.92859 5.51057C6.15395 4.54475 6.43424 3.58052 6.76784 2.77645C6.9347 2.37428 7.1234 1.99133 7.3377 1.6607C7.54629 1.33887 7.8143 1.01137 8.16023 0.780748C8.39889 0.621642 8.69438 0.572678 8.9716 0.646298ZM9.33616 13.7341C8.16459 14.9057 6.2651 14.9057 5.09352 13.7341C4.50774 13.1483 4.21484 12.3806 4.21484 11.6128C4.21484 11.6128 5.09352 12.1128 6.71489 12.1128C6.71489 11.1128 7.21489 8.11279 7.96489 7.61279C8.46489 8.61279 8.75038 8.90569 9.33616 9.49148C9.92195 10.0773 10.2148 10.845 10.2148 11.6128C10.2148 12.3806 9.92195 13.1483 9.33616 13.7341Z" fill="#111827"/>
</svg>
