<svg width="17" height="16" viewBox="0 0 17 16" fill="none" xmlns="http://www.w3.org/2000/svg">
<path fill-rule="evenodd" clip-rule="evenodd" d="M8.8938 16C13.3121 16 16.8938 12.4183 16.8938 8C16.8938 3.58172 13.3121 0 8.8938 0C4.47552 0 0.893799 3.58172 0.893799 8C0.893799 12.4183 4.47552 16 8.8938 16ZM3.22559 6.02741C3.59922 4.95361 4.26938 4.01864 5.13801 3.32056C5.40589 3.72966 5.86829 3.99991 6.39381 3.99991C7.22224 3.99991 7.89381 4.67148 7.89381 5.49991V5.99991C7.89381 7.10448 8.78924 7.99991 9.89381 7.99991C10.9984 7.99991 11.8938 7.10448 11.8938 5.99991C11.8938 5.05979 12.5425 4.27118 13.4166 4.05719C14.3366 5.11161 14.8938 6.49069 14.8938 7.99992C14.8938 8.34069 14.8654 8.67483 14.8108 9.00009H13.8938C12.7892 9.00009 11.8938 9.89552 11.8938 11.0001V13.1973C11.0113 13.7078 9.98656 13.9999 8.89371 13.9999V12C8.89371 10.8954 7.99828 10 6.89371 10C5.78914 10 4.89371 9.10457 4.89371 8C4.89371 7.00849 4.17221 6.1855 3.22559 6.02741Z" fill="#111827"/>
</svg>
