<svg width="20" height="20" viewBox="0 0 20 20" fill="none" xmlns="http://www.w3.org/2000/svg">
<path d="M8.44518 14.8321C8.75203 15.0366 9.14658 15.0557 9.47174 14.8817C9.79689 14.7077 9.99988 14.3688 9.99988 14L9.99988 11.2019L15.4452 14.8321C15.752 15.0366 16.1466 15.0557 16.4717 14.8817C16.7969 14.7077 16.9999 14.3688 16.9999 14V6C16.9999 5.63121 16.7969 5.29235 16.4717 5.11833C16.1466 4.94431 15.752 4.96338 15.4452 5.16795L9.99988 8.79815V6C9.99988 5.63121 9.79689 5.29235 9.47174 5.11833C9.14658 4.94431 8.75203 4.96338 8.44518 5.16795L2.44518 9.16795C2.16698 9.35342 1.99988 9.66565 1.99988 10C1.99988 10.3344 2.16698 10.6466 2.44518 10.8321L8.44518 14.8321Z" fill="#111827"/>
</svg>
